<?xml version="1.0" encoding="utf-8"?>
<!-- Generator: Adobe Illustrator 18.0.0, SVG Export Plug-In . SVG Version: 6.00 Build 0)  -->
<!DOCTYPE svg PUBLIC "-//W3C//DTD SVG 1.1//EN" "http://www.w3.org/Graphics/SVG/1.1/DTD/svg11.dtd">
<svg version="1.1" id="Laag_2" xmlns="http://www.w3.org/2000/svg" xmlns:xlink="http://www.w3.org/1999/xlink" x="0px" y="0px"
	 width="1024px" height="1024px" viewBox="0 0 1024 1024" enable-background="new 0 0 1024 1024" xml:space="preserve">
<g>
	<g>
		<path fill-rule="evenodd" clip-rule="evenodd" fill="#231F20" d="M615.8,992.7c-63.7-138.2-67.1-567.4-67.1-667
			c27.1-28.4,45.7-86.5,45.7-153.6C594.4,77.1,557.1,0,511,0c-46.1,0-83.4,77.1-83.4,172.2c0,67.1,18.6,125.3,45.8,153.7
			c0.1,99.8-3.4,529.1-67.2,667.1c-1.7,3.7-0.1,8,3.6,9.8c88.2,42,176.6,10.7,202-0.1C615.7,1001,617.6,996.6,615.8,992.7z
			 M541.3,267.1c-3.5,0-6.3,2.8-6.3,6.2c0,3,2.3,5.6,5.2,6.1c-6.9,8.7-14.9,14.3-23.7,16c0.5-0.9,0.8-1.9,0.8-3
			c0-3.4-2.8-6.2-6.3-6.2c-3.5,0-6.3,2.8-6.3,6.2c0,1.1,0.3,2.1,0.8,3c-8.8-1.6-16.7-7.2-23.6-15.8c1.8-1.1,3-3,3-5.2
			c0-3.4-2.8-6.2-6.3-6.2c-1.3,0-2.6,0.4-3.6,1.1c-2.9-5.1-5.5-10.8-7.9-17.1c1.9-1.1,3.1-3,3.1-5.3c0-3.4-2.8-6.2-6.3-6.2
			c-0.2,0-0.4,0-0.6,0c-0.5-1.9-1.1-3.8-1.6-5.7c0.7,0.2,1.4,0.4,2.2,0.4c3.5,0,6.3-2.8,6.3-6.2c0-3.4-2.8-6.1-6.3-6.1
			c-1.8,0-3.3,0.7-4.5,1.8c-2.3-11-3.9-23-4.8-35.5c0.2-0.6,0.4-1.3,0.4-2.1c0-1-0.2-1.9-0.7-2.7c-0.2-3.8-0.3-7.6-0.4-11.4
			c0.7-1,1.1-2.2,1.1-3.4c0-1.3-0.4-2.5-1.1-3.5c0-3.5,0.1-7,0.2-10.4c0.6-0.9,0.9-2,0.9-3.2c0-1-0.2-1.9-0.7-2.8
			c0.7-13.8,2.3-26.8,4.7-38.9c1.2,1.4,2.9,2.2,4.9,2.2c3.5,0,6.3-2.8,6.3-6.2c0-3.4-2.8-6.1-6.3-6.1c-1,0-1.9,0.2-2.8,0.6
			c0.5-2.1,1-4.1,1.6-6c0.4,0.1,0.8,0.1,1.2,0.1c3.5,0,6.3-2.8,6.3-6.2c0-2.5-1.6-4.7-3.8-5.6c2-5.7,4.3-11,6.8-15.8
			c1.1,1.7,3.1,2.9,5.3,2.9c3.5,0,6.3-2.8,6.3-6.2c0-3.3-2.7-6-6-6.1c4.5-6.6,9.5-11.7,15-15.2c2.1-0.1,3.9-1.1,5-2.6
			c3.8-1.6,7.8-2.5,12-2.5c3.3,0,6.4,0.5,9.4,1.5c1,2.1,3.2,3.6,5.7,3.6c0.5,0,1.1-0.1,1.6-0.2c5.4,3.3,10.3,8.2,14.7,14.5
			c-0.4-0.1-0.8-0.1-1.1-0.1c-3.5,0-6.3,2.8-6.3,6.2c0,3.4,2.8,6.2,6.3,6.2c2.9,0,5.3-1.9,6-4.4c1,1.8,1.9,3.6,2.9,5.6
			c0,0.1,0,0.2,0,0.3c0,1.9,0.9,3.6,2.3,4.8c0.9,2.1,1.7,4.2,2.5,6.4c-2.8,0.6-4.8,3.1-4.8,6c0,3.4,2.8,6.2,6.3,6.2
			c0.8,0,1.6-0.2,2.3-0.4c0.7,2.4,1.3,4.9,2,7.4c-1.1-1-2.6-1.7-4.3-1.7c-3.5,0-6.3,2.8-6.3,6.1c0,3.4,2.8,6.2,6.3,6.2
			c2.6,0,4.9-1.6,5.8-3.9c1.3,6.3,2.4,13,3.3,19.9c-0.8,1-1.3,2.4-1.3,3.8c0,1.9,0.9,3.6,2.3,4.7c0.3,2.7,0.5,5.4,0.7,8.1
			c-1.8,1.1-3,3-3,5.2c0,2.4,1.4,4.5,3.5,5.5c0.1,2,0.1,4,0.2,6c-2.2,1-3.7,3.1-3.7,5.6c0,2.5,1.5,4.6,3.7,5.6
			c0,2.2-0.1,4.4-0.2,6.5c-2.1,1-3.5,3.1-3.5,5.5c0,2.2,1.2,4.1,2.9,5.2c-0.2,2.4-0.4,4.8-0.6,7.2c-1.4,1.1-2.3,2.8-2.3,4.8
			c0,1.4,0.5,2.8,1.4,3.8c-0.9,7-2,13.7-3.4,20.2c-1-2.2-3.2-3.8-5.8-3.8c-3.5,0-6.3,2.8-6.3,6.2c0,3.4,2.8,6.1,6.3,6.1
			c1.6,0,3.1-0.6,4.2-1.6c-0.6,2.5-1.3,4.9-1.9,7.3c-0.7-0.3-1.5-0.4-2.3-0.4c-3.5,0-6.3,2.8-6.3,6.2c0,2.9,2,5.3,4.8,6
			c-0.8,2.2-1.7,4.4-2.6,6.5c-1.3,1.1-2.2,2.8-2.2,4.6c0,0,0,0.1,0,0.1c-1.2,2.4-2.4,4.7-3.6,6.9
			C545.4,268.2,543.5,267.1,541.3,267.1z M511,41.3c-3.5,0-6.3,2.8-6.3,6.2c0,3.4,2.8,6.2,6.3,6.2c3.5,0,6.3-2.8,6.3-6.2
			C517.3,44.1,514.5,41.3,511,41.3z M511,58.4c-3.5,0-6.3,2.8-6.3,6.2c0,3.4,2.8,6.2,6.3,6.2c3.5,0,6.3-2.8,6.3-6.2
			C517.3,61.2,514.5,58.4,511,58.4z M511,76.5c-3.5,0-6.3,2.8-6.3,6.2c0,3.4,2.8,6.2,6.3,6.2c3.5,0,6.3-2.8,6.3-6.2
			C517.3,79.2,514.5,76.5,511,76.5z M511,93.6c-3.5,0-6.3,2.8-6.3,6.2c0,3.4,2.8,6.1,6.3,6.1c3.5,0,6.3-2.8,6.3-6.1
			C517.3,96.3,514.5,93.6,511,93.6z M511,111.2c-3.5,0-6.3,2.8-6.3,6.2c0,3.4,2.8,6.2,6.3,6.2c3.5,0,6.3-2.8,6.3-6.2
			C517.3,113.9,514.5,111.2,511,111.2z M511,128.3c-3.5,0-6.3,2.8-6.3,6.2c0,3.4,2.8,6.1,6.3,6.1c3.5,0,6.3-2.8,6.3-6.1
			C517.3,131.1,514.5,128.3,511,128.3z M511,146.3c-3.5,0-6.3,2.8-6.3,6.2c0,3.4,2.8,6.1,6.3,6.1c3.5,0,6.3-2.8,6.3-6.1
			C517.3,149.1,514.5,146.3,511,146.3z M511,163.5c-3.5,0-6.3,2.8-6.3,6.1c0,3.4,2.8,6.2,6.3,6.2c3.5,0,6.3-2.8,6.3-6.2
			C517.3,166.2,514.5,163.5,511,163.5z M511,181.1c-3.5,0-6.3,2.8-6.3,6.2c0,3.4,2.8,6.1,6.3,6.1c3.5,0,6.3-2.8,6.3-6.1
			C517.3,183.8,514.5,181.1,511,181.1z M511,198.2c-3.5,0-6.3,2.8-6.3,6.1c0,3.4,2.8,6.2,6.3,6.2c3.5,0,6.3-2.8,6.3-6.2
			C517.3,200.9,514.5,198.2,511,198.2z M511,216.2c-3.5,0-6.3,2.8-6.3,6.2c0,3.4,2.8,6.1,6.3,6.1c3.5,0,6.3-2.8,6.3-6.1
			C517.3,219,514.5,216.2,511,216.2z M511,233.4c-3.5,0-6.3,2.8-6.3,6.2c0,3.4,2.8,6.2,6.3,6.2c3.5,0,6.3-2.8,6.3-6.2
			C517.3,236.1,514.5,233.4,511,233.4z M511,251c-3.5,0-6.3,2.8-6.3,6.2c0,3.4,2.8,6.1,6.3,6.1c3.5,0,6.3-2.8,6.3-6.1
			C517.3,253.7,514.5,251,511,251z M511,268.1c-3.5,0-6.3,2.8-6.3,6.2c0,3.4,2.8,6.2,6.3,6.2c3.5,0,6.3-2.8,6.3-6.2
			C517.3,270.8,514.5,268.1,511,268.1z M526.2,48c-3.5,0-6.3,2.8-6.3,6.2c0,3.4,2.8,6.2,6.3,6.2s6.3-2.8,6.3-6.2
			C532.5,50.8,529.7,48,526.2,48z M526.2,66.1c-3.5,0-6.3,2.8-6.3,6.1c0,3.4,2.8,6.2,6.3,6.2s6.3-2.8,6.3-6.2
			C532.5,68.8,529.7,66.1,526.2,66.1z M526.2,83.2c-3.5,0-6.3,2.8-6.3,6.2c0,3.4,2.8,6.2,6.3,6.2s6.3-2.8,6.3-6.2
			C532.5,85.9,529.7,83.2,526.2,83.2z M526.2,100.8c-3.5,0-6.3,2.8-6.3,6.1c0,3.4,2.8,6.2,6.3,6.2s6.3-2.8,6.3-6.2
			C532.5,103.5,529.7,100.8,526.2,100.8z M526.2,117.9c-3.5,0-6.3,2.8-6.3,6.2c0,3.4,2.8,6.1,6.3,6.1s6.3-2.8,6.3-6.1
			C532.5,120.7,529.7,117.9,526.2,117.9z M526.2,135.9c-3.5,0-6.3,2.8-6.3,6.2c0,3.4,2.8,6.2,6.3,6.2s6.3-2.8,6.3-6.2
			C532.5,138.7,529.7,135.9,526.2,135.9z M526.2,153.1c-3.5,0-6.3,2.8-6.3,6.2c0,3.4,2.8,6.1,6.3,6.1s6.3-2.8,6.3-6.1
			C532.5,155.8,529.7,153.1,526.2,153.1z M526.2,170.7c-3.5,0-6.3,2.8-6.3,6.2c0,3.4,2.8,6.2,6.3,6.2s6.3-2.8,6.3-6.2
			C532.5,173.5,529.7,170.7,526.2,170.7z M526.2,187.8c-3.5,0-6.3,2.8-6.3,6.2c0,3.4,2.8,6.1,6.3,6.1s6.3-2.8,6.3-6.1
			C532.5,190.6,529.7,187.8,526.2,187.8z M526.2,205.9c-3.5,0-6.3,2.8-6.3,6.2c0,3.4,2.8,6.2,6.3,6.2s6.3-2.8,6.3-6.2
			C532.5,208.6,529.7,205.9,526.2,205.9z M526.2,223c-3.5,0-6.3,2.8-6.3,6.1c0,3.4,2.8,6.2,6.3,6.2s6.3-2.8,6.3-6.2
			C532.5,225.7,529.7,223,526.2,223z M526.2,240.6c-3.5,0-6.3,2.8-6.3,6.2s2.8,6.2,6.3,6.2s6.3-2.8,6.3-6.2S529.7,240.6,526.2,240.6
			z M526.2,257.7c-3.5,0-6.3,2.8-6.3,6.1c0,3.4,2.8,6.2,6.3,6.2s6.3-2.8,6.3-6.2C532.5,260.4,529.7,257.7,526.2,257.7z M526.2,275.7
			c-3.5,0-6.3,2.8-6.3,6.2c0,3.4,2.8,6.1,6.3,6.1s6.3-2.8,6.3-6.1C532.5,278.5,529.7,275.7,526.2,275.7z M478.6,76.5
			c-3.5,0-6.3,2.8-6.3,6.2c0,3.4,2.8,6.2,6.3,6.2c3.5,0,6.3-2.8,6.3-6.2C484.9,79.2,482.1,76.5,478.6,76.5z M478.6,93.6
			c-3.5,0-6.3,2.8-6.3,6.2c0,3.4,2.8,6.1,6.3,6.1c3.5,0,6.3-2.8,6.3-6.1C484.9,96.3,482.1,93.6,478.6,93.6z M478.6,111.2
			c-3.5,0-6.3,2.8-6.3,6.2c0,3.4,2.8,6.2,6.3,6.2c3.5,0,6.3-2.8,6.3-6.2C484.9,113.9,482.1,111.2,478.6,111.2z M478.6,128.3
			c-3.5,0-6.3,2.8-6.3,6.2c0,3.4,2.8,6.1,6.3,6.1c3.5,0,6.3-2.8,6.3-6.1C484.9,131.1,482.1,128.3,478.6,128.3z M478.6,146.3
			c-3.5,0-6.3,2.8-6.3,6.2c0,3.4,2.8,6.1,6.3,6.1c3.5,0,6.3-2.8,6.3-6.1C484.9,149.1,482.1,146.3,478.6,146.3z M478.6,163.5
			c-3.5,0-6.3,2.8-6.3,6.1c0,3.4,2.8,6.2,6.3,6.2c3.5,0,6.3-2.8,6.3-6.2C484.9,166.2,482.1,163.5,478.6,163.5z M478.6,181.1
			c-3.5,0-6.3,2.8-6.3,6.2c0,3.4,2.8,6.1,6.3,6.1c3.5,0,6.3-2.8,6.3-6.1C484.9,183.8,482.1,181.1,478.6,181.1z M478.6,198.2
			c-3.5,0-6.3,2.8-6.3,6.1c0,3.4,2.8,6.2,6.3,6.2c3.5,0,6.3-2.8,6.3-6.2C484.9,200.9,482.1,198.2,478.6,198.2z M478.6,216.2
			c-3.5,0-6.3,2.8-6.3,6.2c0,3.4,2.8,6.1,6.3,6.1c3.5,0,6.3-2.8,6.3-6.1C484.9,219,482.1,216.2,478.6,216.2z M478.6,233.4
			c-3.5,0-6.3,2.8-6.3,6.2c0,3.4,2.8,6.2,6.3,6.2c3.5,0,6.3-2.8,6.3-6.2C484.9,236.1,482.1,233.4,478.6,233.4z M478.6,251
			c-3.5,0-6.3,2.8-6.3,6.2c0,3.4,2.8,6.1,6.3,6.1c3.5,0,6.3-2.8,6.3-6.1C484.9,253.7,482.1,251,478.6,251z M493.8,48
			c-3.5,0-6.3,2.8-6.3,6.2c0,3.4,2.8,6.2,6.3,6.2c3.5,0,6.3-2.8,6.3-6.2C500.1,50.8,497.3,48,493.8,48z M493.8,66.1
			c-3.5,0-6.3,2.8-6.3,6.1c0,3.4,2.8,6.2,6.3,6.2c3.5,0,6.3-2.8,6.3-6.2C500.1,68.8,497.3,66.1,493.8,66.1z M493.8,83.2
			c-3.5,0-6.3,2.8-6.3,6.2c0,3.4,2.8,6.2,6.3,6.2c3.5,0,6.3-2.8,6.3-6.2C500.1,85.9,497.3,83.2,493.8,83.2z M493.8,100.8
			c-3.5,0-6.3,2.8-6.3,6.1c0,3.4,2.8,6.2,6.3,6.2c3.5,0,6.3-2.8,6.3-6.2C500.1,103.5,497.3,100.8,493.8,100.8z M493.8,117.9
			c-3.5,0-6.3,2.8-6.3,6.2c0,3.4,2.8,6.1,6.3,6.1c3.5,0,6.3-2.8,6.3-6.1C500.1,120.7,497.3,117.9,493.8,117.9z M493.8,135.9
			c-3.5,0-6.3,2.8-6.3,6.2c0,3.4,2.8,6.2,6.3,6.2c3.5,0,6.3-2.8,6.3-6.2C500.1,138.7,497.3,135.9,493.8,135.9z M493.8,153.1
			c-3.5,0-6.3,2.8-6.3,6.2c0,3.4,2.8,6.1,6.3,6.1c3.5,0,6.3-2.8,6.3-6.1C500.1,155.8,497.3,153.1,493.8,153.1z M493.8,170.7
			c-3.5,0-6.3,2.8-6.3,6.2c0,3.4,2.8,6.2,6.3,6.2c3.5,0,6.3-2.8,6.3-6.2C500.1,173.5,497.3,170.7,493.8,170.7z M493.8,187.8
			c-3.5,0-6.3,2.8-6.3,6.2c0,3.4,2.8,6.1,6.3,6.1c3.5,0,6.3-2.8,6.3-6.1C500.1,190.6,497.3,187.8,493.8,187.8z M493.8,205.9
			c-3.5,0-6.3,2.8-6.3,6.2c0,3.4,2.8,6.2,6.3,6.2c3.5,0,6.3-2.8,6.3-6.2C500.1,208.6,497.3,205.9,493.8,205.9z M493.8,223
			c-3.5,0-6.3,2.8-6.3,6.1c0,3.4,2.8,6.2,6.3,6.2c3.5,0,6.3-2.8,6.3-6.2C500.1,225.7,497.3,223,493.8,223z M493.8,240.6
			c-3.5,0-6.3,2.8-6.3,6.2s2.8,6.2,6.3,6.2c3.5,0,6.3-2.8,6.3-6.2S497.3,240.6,493.8,240.6z M493.8,257.7c-3.5,0-6.3,2.8-6.3,6.1
			c0,3.4,2.8,6.2,6.3,6.2c3.5,0,6.3-2.8,6.3-6.2C500.1,260.4,497.3,257.7,493.8,257.7z M493.8,275.7c-3.5,0-6.3,2.8-6.3,6.2
			c0,3.4,2.8,6.1,6.3,6.1c3.5,0,6.3-2.8,6.3-6.1C500.1,278.5,497.3,275.7,493.8,275.7z M464,117.9c-3.5,0-6.3,2.8-6.3,6.2
			c0,3.4,2.8,6.1,6.3,6.1c3.5,0,6.3-2.8,6.3-6.1C470.3,120.7,467.5,117.9,464,117.9z M464,135.9c-3.5,0-6.3,2.8-6.3,6.2
			c0,3.4,2.8,6.2,6.3,6.2c3.5,0,6.3-2.8,6.3-6.2C470.3,138.7,467.5,135.9,464,135.9z M464,153.1c-3.5,0-6.3,2.8-6.3,6.2
			c0,3.4,2.8,6.1,6.3,6.1c3.5,0,6.3-2.8,6.3-6.1C470.3,155.8,467.5,153.1,464,153.1z M464,170.7c-3.5,0-6.3,2.8-6.3,6.2
			c0,3.4,2.8,6.2,6.3,6.2c3.5,0,6.3-2.8,6.3-6.2C470.3,173.5,467.5,170.7,464,170.7z M464,187.8c-3.5,0-6.3,2.8-6.3,6.2
			c0,3.4,2.8,6.1,6.3,6.1c3.5,0,6.3-2.8,6.3-6.1C470.3,190.6,467.5,187.8,464,187.8z M464,205.9c-3.5,0-6.3,2.8-6.3,6.2
			c0,3.4,2.8,6.2,6.3,6.2c3.5,0,6.3-2.8,6.3-6.2C470.3,208.6,467.5,205.9,464,205.9z M541.3,75.5c-3.5,0-6.3,2.8-6.3,6.2
			c0,3.4,2.8,6.2,6.3,6.2s6.3-2.8,6.3-6.2C547.6,78.2,544.8,75.5,541.3,75.5z M541.3,92.6c-3.5,0-6.3,2.8-6.3,6.2
			c0,3.4,2.8,6.1,6.3,6.1s6.3-2.8,6.3-6.1C547.6,95.3,544.8,92.6,541.3,92.6z M541.3,110.2c-3.5,0-6.3,2.8-6.3,6.2
			c0,3.4,2.8,6.2,6.3,6.2s6.3-2.8,6.3-6.2C547.6,112.9,544.8,110.2,541.3,110.2z M541.3,127.3c-3.5,0-6.3,2.8-6.3,6.2
			c0,3.4,2.8,6.1,6.3,6.1s6.3-2.8,6.3-6.1C547.6,130.1,544.8,127.3,541.3,127.3z M541.3,145.3c-3.5,0-6.3,2.8-6.3,6.2
			s2.8,6.2,6.3,6.2s6.3-2.8,6.3-6.2S544.8,145.3,541.3,145.3z M541.3,162.5c-3.5,0-6.3,2.7-6.3,6.1c0,3.4,2.8,6.2,6.3,6.2
			s6.3-2.8,6.3-6.2C547.6,165.2,544.8,162.5,541.3,162.5z M541.3,180.1c-3.5,0-6.3,2.8-6.3,6.2c0,3.4,2.8,6.2,6.3,6.2
			s6.3-2.8,6.3-6.2C547.6,182.8,544.8,180.1,541.3,180.1z M541.3,197.2c-3.5,0-6.3,2.8-6.3,6.2c0,3.4,2.8,6.2,6.3,6.2
			s6.3-2.8,6.3-6.2C547.6,200,544.8,197.2,541.3,197.2z M541.3,215.2c-3.5,0-6.3,2.8-6.3,6.2c0,3.4,2.8,6.1,6.3,6.1s6.3-2.8,6.3-6.1
			C547.6,218,544.8,215.2,541.3,215.2z M541.3,232.4c-3.5,0-6.3,2.8-6.3,6.1c0,3.4,2.8,6.2,6.3,6.2s6.3-2.8,6.3-6.2
			C547.6,235.1,544.8,232.4,541.3,232.4z M541.3,250c-3.5,0-6.3,2.8-6.3,6.2c0,3.4,2.8,6.1,6.3,6.1s6.3-2.8,6.3-6.1
			C547.6,252.7,544.8,250,541.3,250z M556.5,129.2c3.5,0,6.3-2.8,6.3-6.2c0-3.4-2.8-6.2-6.3-6.2s-6.3,2.8-6.3,6.2
			C550.2,126.5,553,129.2,556.5,129.2z M556.5,147.3c3.5,0,6.3-2.8,6.3-6.2c0-3.4-2.8-6.1-6.3-6.1s-6.3,2.8-6.3,6.1
			C550.2,144.5,553,147.3,556.5,147.3z M556.5,164.4c3.5,0,6.3-2.8,6.3-6.1c0-3.4-2.8-6.2-6.3-6.2s-6.3,2.8-6.3,6.2
			C550.2,161.6,553,164.4,556.5,164.4z M556.5,182c3.5,0,6.3-2.8,6.3-6.2c0-3.4-2.8-6.1-6.3-6.1s-6.3,2.8-6.3,6.1
			C550.2,179.3,553,182,556.5,182z M556.5,199.1c3.5,0,6.3-2.8,6.3-6.1c0-3.4-2.8-6.2-6.3-6.2s-6.3,2.8-6.3,6.2
			C550.2,196.4,553,199.1,556.5,199.1z M556.5,217.2c3.5,0,6.3-2.8,6.3-6.2c0-3.4-2.8-6.2-6.3-6.2s-6.3,2.8-6.3,6.2
			C550.2,214.4,553,217.2,556.5,217.2z"/>
	</g>
</g>
</svg>
